<?xml version="1.0" encoding="UTF-8" standalone="no"?>
<!-- Created with Inkscape (http://www.inkscape.org/) -->

<svg
   version="1.1"
   id="svg2"
   xml:space="preserve"
   width="1587.4"
   height="1718.4"
   viewBox="0 0 1587.4 1718.4"
   sodipodi:docname="Car top view 01.svg"
   inkscape:version="1.2.1 (9c6d41e4, 2022-07-14)"
   xmlns:inkscape="http://www.inkscape.org/namespaces/inkscape"
   xmlns:sodipodi="http://sodipodi.sourceforge.net/DTD/sodipodi-0.dtd"
   xmlns="http://www.w3.org/2000/svg"
   xmlns:svg="http://www.w3.org/2000/svg"><defs
     id="defs6" /><sodipodi:namedview
     id="namedview4"
     pagecolor="#ffffff"
     bordercolor="#666666"
     borderopacity="1.0"
     inkscape:pageshadow="2"
     inkscape:pageopacity="0.0"
     inkscape:pagecheckerboard="0"
     inkscape:showpageshadow="2"
     inkscape:deskcolor="#d1d1d1"
     showgrid="false"
     inkscape:zoom="0.13733706"
     inkscape:cx="-21.844068"
     inkscape:cy="1387.0983"
     inkscape:window-width="1792"
     inkscape:window-height="1067"
     inkscape:window-x="0"
     inkscape:window-y="25"
     inkscape:window-maximized="0"
     inkscape:current-layer="g10" /><g
     id="g8"
     inkscape:groupmode="layer"
     inkscape:label="ink_ext_XXXXXX"
     transform="matrix(1.3333333,0,0,-1.3333333,0,1718.4)"><g
       id="g10"
       transform="scale(0.1)"><g
         id="car-1"
         inkscape:export-filename="g594.png"
         inkscape:export-xdpi="6.2771468"
         inkscape:export-ydpi="6.2771468"><path
           d="m 4856.76,9533.68 5.93,-236.34 c 1.78,-71.08 -32.67,-129.76 -77.02,-131.19 l -965.97,-31.34 c -44.32,-1.51 -81.67,54.93 -83.44,125.99 l -5.97,236.35 c -1.77,70.92 32.73,129.6 77.02,131.1 l 966.03,31.43 c 44.28,1.5 81.65,-54.93 83.42,-126"
           style="fill:#261c18;fill-opacity:1;fill-rule:nonzero;stroke:none"
           id="path14" /><path
           d="m 4856.72,12115.6 5.96,-236.3 c 1.77,-70.9 -32.71,-129.8 -77.03,-131.2 l -966.02,-31.4 c -44.28,-1.4 -81.67,55 -83.42,125.9 l -5.92,236.4 c -1.77,71 32.67,129.7 77.03,131.3 l 965.96,31.3 c 44.31,1.4 81.66,-55 83.44,-126"
           style="fill:#261c18;fill-opacity:1;fill-rule:nonzero;stroke:none"
           id="path16" /><path
           d="m 8128.18,12080.6 5.91,-236.3 c 1.75,-71.1 -32.68,-129.8 -77.04,-131.2 l -965.98,-31.4 c -44.34,-1.4 -81.64,55 -83.43,126 l -5.89,236.4 c -1.83,70.9 32.63,129.8 76.96,131.1 l 966.03,31.4 c 44.34,1.5 81.65,-54.9 83.44,-126"
           style="fill:#261c18;fill-opacity:1;fill-rule:nonzero;stroke:none"
           id="path18" /><path
           d="m 8184.29,9673.79 5.93,-236.31 c 1.76,-70.93 -32.74,-129.79 -77,-131.17 l -966.06,-31.5 c -44.28,-1.37 -81.67,55.06 -83.41,126 l -5.96,236.35 c -1.76,71.06 32.77,129.75 77.05,131.29 l 965.94,31.35 c 44.36,1.37 81.71,-55.06 83.51,-126.01"
           style="fill:#261c18;fill-opacity:1;fill-rule:nonzero;stroke:none"
           id="path20" /><path
           d="m 7682.01,9442.29 1236.07,123.6 c 1.71,0.09 3.34,0.34 5.01,0.47 91.13,182.62 431.98,370.37 431.98,370.37 0,0 -841.53,-378.86 -1628.21,-397.16 786.68,18.3 1628.21,397.16 1628.21,397.16 268.43,305.97 418.89,746.97 418.88,755.57 0.01,9.3 -150.45,490 -418.88,755.4 0,0 -841.53,378.9 -1628.21,397.2 786.68,-18.3 1628.21,-397.2 1628.21,-397.2 0,0 -350.09,188.6 -441.46,371.3 l -1231.6,123.2 c 0,0 -3134.04,189.2 -4119.2,73.7 -109.54,-33.9 -167.91,-116 -167.91,-116 -58.83,-83 54.74,-105.4 54.74,-105.4 l 278.9,-64 -204.19,6.8 -94.57,-52.6 c -214.12,-105.3 -136.99,-439.5 -136.99,-439.5 57.26,-87 52.28,-167.1 52.28,-167.1 v -385.4 -0.9 -385.4 c 0,0 4.98,-80.1 -52.28,-167.1 0,0 -77.13,-334.2 136.99,-439.49 l 94.57,-52.64 204.19,6.86 -278.9,-64.09 c 0,0 -113.57,-22.34 -54.74,-105.32 0,0 58.37,-82.09 167.91,-116.01 985.16,-115.55 4119.2,73.68 4119.2,73.68"
           style="fill:#6d86a5;fill-opacity:1;fill-rule:nonzero;stroke:none"
           id="path22" /><path
           d="m 9444.67,10393.4 c -49.29,-20.6 -99.22,-39.3 -148.85,-58.9 -12.4,-4.9 -24.73,-10 -37.69,-13.4 l -38.37,-11.6 -76.55,-23.5 -306.24,-94.5 -0.19,-0.1 -0.81,-0.1 c -15.07,-4 -31.23,-9.2 -46.56,-15 -15.45,-5.7 -30.57,-12.2 -45.58,-19 -14.87,-7.1 -29.61,-14.3 -43.85,-22.4 -14.46,-7.6 -28.17,-16.4 -41.87,-25.2 -13.46,-9.1 -26.86,-18.3 -39.38,-28.4 -13.14,-9.5 -24.61,-20.6 -36.78,-31.1 -11.26,-11.2 -23.03,-22.1 -33.34,-34.1 -10.21,-12 -20.98,-23.77 -29.77,-36.81 l -13.66,-18.81 -12.94,-20.36 -25.9,-40.72 -51.63,-81.5 c -7.78,-14.01 -18.37,-26.53 -27.95,-39.57 l -29.34,-38.87 c -19.45,-25.95 -39.08,-51.8 -59.19,-77.43 14.37,28.68 29.21,57.13 44.25,85.44 l 22.43,42.59 c 7.67,14.09 14.33,28.7 23.74,41.84 l 51.92,81.35 25.86,40.72 12.92,20.36 14.77,20.39 c 9.26,13.78 20.61,26.18 31.41,38.88 10.93,12.6 23.29,24.1 35.16,36 12.84,10.9 24.95,22.7 38.68,32.6 13.2,10.7 27.18,20.4 41.33,29.9 14.36,9.1 28.73,18.3 43.88,26.4 14.88,8.4 30.31,16 45.86,23.3 15.67,7.1 31.54,13.9 47.79,19.9 16.37,6.2 32.46,11.5 50.27,16.2 l -1.01,-0.3 306.23,94.4 76.54,23.6 38.17,12 c 12.6,4.5 25.8,7.3 38.88,10.3 52.44,11.8 104.56,24.6 157.36,35.5"
           style="fill:#232628;fill-opacity:1;fill-rule:nonzero;stroke:none"
           id="path24" /><path
           d="m 7547.59,9507.53 c 0,0 -313.71,123.59 -1112.87,154.5 0,0 -1859.71,37.78 -2136.1,-30.91 l -246.48,-123.59 c 0,0 1905.22,-149.82 3495.45,0"
           style="fill:#232628;fill-opacity:1;fill-rule:nonzero;stroke:none"
           id="path26" /><path
           d="m 3685.77,9788.13 c -105.2,0 -190.5,10.64 -190.5,23.75 0,13.12 85.3,23.74 190.5,23.74 105.16,0 190.45,-10.62 190.45,-23.74 0,-13.11 -85.29,-23.75 -190.45,-23.75"
           style="fill:#232628;fill-opacity:1;fill-rule:nonzero;stroke:none"
           id="path28" /><path
           d="m 4184.11,10692.7 c 0,48.6 24.88,70.4 24.88,70.4 h 231.56 c 114.51,-4.6 115.15,-70.4 115.15,-70.4 0,0 -0.64,-65.8 -115.15,-70.4 h -231.56 c 0,0 -24.88,21.7 -24.88,70.4"
           style="fill:#232628;fill-opacity:1;fill-rule:nonzero;stroke:none"
           id="path30" /><path
           d="m 4052.14,11277.7 c 0,48.6 24.89,70.4 24.89,70.4 h 231.55 c 114.52,-4.6 115.16,-70.4 115.16,-70.4 0,0 -0.64,-65.8 -115.16,-70.4 h -231.55 c 0,0 -24.89,21.7 -24.89,70.4"
           style="fill:#232628;fill-opacity:1;fill-rule:nonzero;stroke:none"
           id="path32" /><path
           d="m 4052.14,10188.1 c 0,48.6 24.89,70.3 24.89,70.3 h 231.55 c 114.52,-4.5 115.16,-70.3 115.16,-70.3 0,0 -0.64,-65.8 -115.16,-70.4 h -231.55 c 0,0 -24.89,21.7 -24.89,70.4"
           style="fill:#232628;fill-opacity:1;fill-rule:nonzero;stroke:none"
           id="path34" /><path
           d="m 4709.44,9782.22 c 0,0 -12.39,-1.58 -33.96,-3.33 -10.83,-0.84 -23.98,-1.85 -38.95,-3 -7.57,-0.59 -15.57,-1.21 -23.93,-1.85 -8.44,-0.59 -17.17,1.28 -26.36,1.45 -73.35,4.18 -171.14,9.75 -268.94,15.34 -97.8,5.56 -195.59,11.16 -268.94,15.33 -9.11,0.97 -18.04,-0.03 -26.28,1.77 -8.28,1.59 -16.12,3.11 -23.5,4.52 -14.77,2.83 -27.66,5.32 -38.26,7.37 -21.18,4.18 -33.24,7.03 -33.24,7.03 0,0 12.38,1.46 33.92,3.18 10.79,0.85 23.93,1.84 38.95,2.97 7.48,0.59 15.48,1.17 23.92,1.84 8.49,0.84 17.17,-1.15 26.36,-1.25 73.35,-4.2 171.14,-9.76 268.94,-15.35 97.79,-5.6 195.59,-11.16 268.94,-15.33 9.12,-0.9 18,-0.06 26.28,-1.57 8.29,-1.62 16.14,-3.12 23.54,-4.57 14.73,-2.85 27.63,-5.36 38.22,-7.41 21.17,-4.21 33.29,-7.14 33.29,-7.14"
           style="fill:#232628;fill-opacity:1;fill-rule:nonzero;stroke:none"
           id="path36" /><path
           d="m 7175.95,10458.8 c 51.8,1.3 169.42,34.4 170.53,34.7 112.67,34.2 113.95,126.7 113.95,127.6 v 71.6 h 29.88 v -71.6 c 0,-1.1 -1.52,-113.3 -134.68,-153.7 -5.32,-1.5 -122.95,-34.6 -178.85,-36 l -0.83,27.4"
           style="fill:#f5f014;fill-opacity:1;fill-rule:nonzero;stroke:none"
           id="path38" /><path
           d="m 9355.07,11447.7 c 0,0 -168.04,357.2 -436.99,370.9 l -4.47,0.4 c 91.37,-182.7 441.46,-371.3 441.46,-371.3"
           style="fill:#f5f014;fill-opacity:1;fill-rule:nonzero;stroke:none"
           id="path40" /><path
           d="m 8923.09,9566.36 c 265.95,17.87 431.98,370.37 431.98,370.37 0,0 -340.85,-187.75 -431.98,-370.37"
           style="fill:#f5f014;fill-opacity:1;fill-rule:nonzero;stroke:none"
           id="path42" /><path
           d="m 9444.67,10991.1 c -52.8,10.9 -104.92,23.6 -157.36,35.5 -13.08,3 -26.28,5.8 -38.88,10.3 l -38.17,12 -76.54,23.6 -306.23,94.4 1.01,-0.2 c -17.81,4.6 -33.9,9.9 -50.27,16.1 -16.25,6 -32.12,12.7 -47.79,19.9 -15.55,7.3 -30.98,14.9 -45.86,23.3 -15.15,8.1 -29.52,17.3 -43.88,26.5 -14.15,9.4 -28.13,19.1 -41.33,29.7 -13.73,10 -25.84,21.8 -38.68,32.7 -11.87,11.9 -24.23,23.4 -35.16,36 -10.8,12.8 -22.15,25.1 -31.41,38.9 l -14.77,20.3 -12.92,20.4 -25.86,40.7 -51.92,81.4 c -9.41,13.1 -16.07,27.8 -23.74,41.8 l -22.43,42.6 c -15.04,28.3 -29.88,56.8 -44.25,85.4 20.11,-25.5 39.74,-51.4 59.19,-77.3 l 29.34,-38.9 c 9.58,-13.1 20.17,-25.6 27.95,-39.6 l 51.63,-81.5 25.9,-40.7 12.94,-20.4 13.66,-18.8 c 8.79,-13 19.56,-24.7 29.77,-36.8 10.31,-12 22.08,-22.9 33.34,-34.1 12.17,-10.5 23.64,-21.6 36.78,-31.1 12.52,-10.2 25.92,-19.4 39.38,-28.4 13.7,-8.8 27.41,-17.6 41.87,-25.3 14.24,-8 28.98,-15.2 43.85,-22.3 15.01,-6.8 30.13,-13.3 45.58,-19 15.33,-5.8 31.49,-11 46.56,-15 l 0.81,-0.2 h 0.19 l 306.24,-94.4 76.55,-23.7 38.37,-11.5 c 12.96,-3.4 25.29,-8.5 37.69,-13.4 49.63,-19.6 99.56,-38.3 148.85,-58.9"
           style="fill:#232628;fill-opacity:1;fill-rule:nonzero;stroke:none"
           id="path44" /><path
           d="m 7547.59,11877 c 0,0 -313.71,-123.7 -1112.87,-154.6 0,0 -1859.71,-37.7 -2136.1,30.9 l -246.48,123.7 c 0,0 1905.22,149.8 3495.45,0"
           style="fill:#232628;fill-opacity:1;fill-rule:nonzero;stroke:none"
           id="path46" /><path
           d="m 7099.44,10691.8 c 5.02,756 -174.25,1020.3 -174.25,1020.3 L 4709.44,11602.3 4563.78,11149 c -37.35,-147.6 67.21,-284.9 67.21,-284.9 v -172.3 0.9 -172.3 c 0,0 -104.56,-137.3 -67.21,-285 l 145.66,-453.18 2215.75,-109.82 c 0,0 179.27,264.29 174.25,1020.3"
           style="fill:#c8e0e1;fill-opacity:1;fill-rule:nonzero;stroke:none"
           id="path48" /><path
           d="m 3685.77,11596.4 c -105.2,0 -190.5,-10.7 -190.5,-23.8 0,-13.1 85.3,-23.7 190.5,-23.7 105.16,0 190.45,10.6 190.45,23.7 0,13.1 -85.29,23.8 -190.45,23.8"
           style="fill:#232628;fill-opacity:1;fill-rule:nonzero;stroke:none"
           id="path50" /><path
           d="m 8173.24,11810.2 -7.96,-6.9 c -2.61,-2.4 -4.47,-5.3 -6.71,-7.9 -4.35,-5.2 -7.73,-11.3 -11.17,-17 -6.73,-11.8 -11.96,-24.4 -16.49,-36.8 l -0.47,3.8 39.48,-58 c 14.06,-19 24.1,-39.9 35.81,-60.1 11.3,-20.4 23.31,-40.6 32.4,-61.9 9.84,-21 17.52,-42.9 26.22,-64.3 l 21.82,-65.5 c 7.81,-21.8 13.03,-44.1 19.21,-66.2 5.91,-22.2 12.45,-44.2 16.91,-66.7 l 14.64,-67 11.9,-67.5 c 4.3,-22.5 6.54,-45.2 9.92,-67.7 6.43,-45.2 10.85,-90.6 14.52,-136 3.63,-45.4 6.16,-90.9 7.32,-136.4 1.39,-45.6 1.51,-90.9 -0.25,-136.9 l -29.88,0.6 v 0.9 l 29.88,0.6 c 1.76,-46 1.64,-91.3 0.25,-136.9 -1.16,-45.5 -3.69,-91 -7.32,-136.4 -3.67,-45.4 -8.09,-90.8 -14.52,-136 -3.38,-22.5 -5.62,-45.2 -9.92,-67.7 l -11.9,-67.5 -14.64,-67.1 c -4.46,-22.4 -11,-44.4 -16.91,-66.6 -6.18,-22.11 -11.4,-44.48 -19.21,-66.15 l -21.82,-65.57 c -8.57,-21.46 -16.67,-43.13 -26.44,-64.22 -9.03,-21.31 -21.03,-41.5 -32.34,-61.87 -11.7,-20.21 -21.75,-41.1 -35.78,-60.11 l -39.44,-58 0.42,3.7 c 4.55,-12.41 9.84,-25.01 16.56,-36.76 3.47,-5.82 6.83,-11.81 11.24,-17.06 2.24,-2.6 4.14,-5.56 6.72,-7.87 l 7.95,-6.94 -8.74,6.16 c -2.92,2.13 -5.14,4.86 -7.7,7.3 -5.17,4.94 -9.24,10.65 -13.48,16.21 -8.21,11.43 -15.14,23.4 -21.21,36.04 l -0.73,1.6 1.13,2.14 33.31,60.36 c 11.89,19.62 19.81,41.16 29.29,61.83 9.1,20.87 18.86,41.4 25.71,63.09 7.43,21.38 16.91,42.06 25.22,63.17 l 21.4,64.45 c 7.74,21.33 12.9,43.37 18.99,65.1 5.83,21.9 12.27,43.6 16.65,65.7 l 14.43,66.3 11.74,66.7 c 4.25,22.2 6.51,44.7 9.86,67 6.36,44.7 10.75,89.6 14.34,134.6 3.68,44.9 6.09,90 7.25,135.1 1.42,45 1.51,90.3 -0.19,134.9 l 29.88,0.7 v -0.9 l -29.88,0.7 c 1.7,44.6 1.61,89.9 0.19,134.9 -1.16,45.1 -3.57,90.1 -7.25,135.1 -3.59,45 -7.98,89.9 -14.34,134.6 -3.35,22.3 -5.61,44.8 -9.86,67 l -11.74,66.7 -14.43,66.3 c -4.38,22.1 -10.82,43.8 -16.65,65.7 -6.09,21.7 -11.25,43.8 -18.99,65.1 l -21.4,64.4 c -8.23,21.2 -18.09,41.7 -25.4,63.2 -6.85,21.6 -16.6,42.2 -25.68,63 -9.53,20.7 -17.36,42.2 -29.28,61.9 l -33.27,60.3 -1.21,2.2 0.76,1.7 c 6.08,12.6 13.04,24.6 21.27,36 4.25,5.6 8.34,11.3 13.57,16.2 2.58,2.5 4.82,5.3 7.75,7.3 l 8.69,6.1"
           style="fill:#232628;fill-opacity:1;fill-rule:nonzero;stroke:none"
           id="path52" /><path
           d="m 7408.98,9158.68 c 158.4,209 138.61,300.78 138.61,300.78 -134.44,17.17 -201.65,-185.4 -201.65,-185.4 -42.98,-96.17 9.33,-108.17 9.33,-108.17 16.92,-8.04 35.08,-9.54 53.71,-7.21"
           style="fill:#ffffff;fill-opacity:1;fill-rule:nonzero;stroke:none"
           id="path54" /><path
           d="m 7408.98,9158.68 c 100.81,12.5 214.99,151.44 214.99,151.44 87.62,96.1 41.24,121.86 41.24,121.86 l 61.65,107.59 h -125.1 l -54.17,-80.11 c 0,0 19.79,-91.78 -138.61,-300.78"
           style="fill:#232628;fill-opacity:1;fill-rule:nonzero;stroke:none"
           id="path56" /><path
           d="m 7408.98,12225.8 c -18.63,2.3 -36.79,0.8 -53.71,-7.2 0,0 -52.31,-12 -9.33,-108.1 0,0 67.21,-202.6 201.65,-185.5 0,0 19.79,91.8 -138.61,300.8"
           style="fill:#ffffff;fill-opacity:1;fill-rule:nonzero;stroke:none"
           id="path58" /><path
           d="m 7623.97,12074.4 c 0,0 -114.18,138.9 -214.99,151.4 158.4,-209 138.61,-300.8 138.61,-300.8 l 54.17,-80.1 h 125.1 l -61.65,107.6 c 0,0 46.38,25.7 -41.24,121.9"
           style="fill:#232628;fill-opacity:1;fill-rule:nonzero;stroke:none"
           id="path60" /><path
           d="m 3429.78,11684.7 94.57,52.6 204.19,-6.8 -278.9,64 c 0,0 -113.57,22.4 -54.74,105.4 0,0 58.37,82.1 167.91,116 -16.77,-2 -32.97,-4 -48.38,-6.2 0,0 -301.31,-10.8 -465.05,-373.3 33.93,76.3 380.4,48.3 380.4,48.3"
           style="fill:#ec1d27;fill-opacity:1;fill-rule:nonzero;stroke:none"
           id="path62" /><path
           d="m 3394.9,9484.62 c -58.83,82.98 54.74,105.32 54.74,105.32 l 278.9,64.09 -204.19,-6.86 -94.57,52.64 c 0,0 -346.47,-28.08 -380.4,48.23 163.74,-362.42 465.05,-373.26 465.05,-373.26 15.41,-2.16 31.61,-4.22 48.38,-6.17 -109.54,33.92 -167.91,116.01 -167.91,116.01"
           style="fill:#ec1d27;fill-opacity:1;fill-rule:nonzero;stroke:none"
           id="path64" /><path
           d="m 3429.78,9699.81 c -214.12,105.29 -136.99,439.49 -136.99,439.49 57.26,87 52.28,167.1 52.28,167.1 v 385.4 0.9 385.4 c 0,0 4.98,80.1 -52.28,167.1 0,0 -77.13,334.2 136.99,439.5 0,0 -346.47,28 -380.4,-48.3 -22.06,-49 -41.78,-104.2 -57.77,-166.9 0,0 -104.5,-323.6 -99.6,-777.3 -4.9,-453.5 99.6,-777.23 99.6,-777.23 15.99,-62.69 35.71,-117.92 57.77,-166.93 33.93,-76.31 380.4,-48.23 380.4,-48.23"
           style="fill:#232628;fill-opacity:1;fill-rule:nonzero;stroke:none"
           id="path66" /><path
           d="m 3728.54,11730.5 35.47,-8.6 c 11.67,-3.4 23.3,-7.3 35.04,-11.1 11.16,-4.8 22.79,-9 33.57,-14.7 10.87,-5.7 21.78,-11.4 31.7,-18.6 5.17,-3.3 10.23,-6.8 14.85,-10.8 4.58,-4 9.76,-7.6 13.94,-12.1 8.84,-8.5 16.88,-17.8 23.97,-27.8 3.15,-5.3 6.97,-10.2 9.51,-15.8 2.83,-5.5 5.49,-11.1 7.54,-16.9 2.3,-5.7 3.81,-11.8 5.21,-17.9 1.23,-6.3 2.19,-11.9 2.07,-19.7 l 0.07,1.2 c 2,-36.1 -0.15,-72.2 0.53,-108.3 v -108.2 -216.5 -432.9 h -29.87 v 0.9 h 29.87 v -432.9 -216.5 -108.22 c -0.76,-36.07 1.51,-72.13 -0.76,-108.23 l -0.04,1.14 c 0.12,-7.8 -0.83,-13.38 -2.07,-19.7 -1.4,-6.1 -2.87,-12.16 -5.22,-17.84 -2.03,-5.86 -4.65,-11.41 -7.52,-16.87 -2.51,-5.6 -6.34,-10.52 -9.49,-15.78 -7.04,-10.06 -15.04,-19.37 -23.92,-27.86 -4.18,-4.5 -9.32,-8.01 -13.94,-12.01 -4.62,-4.07 -9.63,-7.54 -14.82,-10.87 -9.94,-7.14 -20.85,-12.85 -31.65,-18.52 -10.82,-5.7 -22.46,-9.91 -33.57,-14.8 -11.7,-3.73 -23.25,-7.65 -34.92,-11.11 l -35.55,-8.6 34.17,12.06 c 11.1,4.56 22.01,9.61 32.92,14.34 10.32,5.87 21.19,10.76 30.98,17.15 9.8,6.33 19.59,12.59 28.23,20.09 4.54,3.52 8.92,7.18 12.75,11.29 3.89,4.07 8.36,7.64 11.66,12.08 7.29,8.4 13.62,17.32 18.87,26.65 2.23,4.83 5.22,9.35 6.85,14.35 1.95,4.91 3.75,9.8 4.9,14.83 1.52,4.92 2.15,10.03 2.79,14.97 0.55,4.77 0.67,10.44 0.25,13.87 l -0.06,1.14 c -2.26,36.1 0,72.16 -0.71,108.23 v 108.22 216.5 432.9 h 29.87 v -0.9 h -29.87 v 432.9 216.5 108.2 c 0.63,36.1 -1.47,72.2 0.52,108.3 l 0.05,1.1 c 0.38,3.4 0.3,9.1 -0.21,13.8 -0.64,5 -1.28,10.1 -2.79,15 -1.19,5 -2.95,9.9 -4.9,14.8 -1.67,5 -4.62,9.5 -6.84,14.3 -5.26,9.4 -11.55,18.3 -18.88,26.6 -3.3,4.5 -7.68,8 -11.59,12.1 -3.86,4.1 -8.23,7.8 -12.73,11.3 -8.65,7.5 -18.44,13.8 -28.25,20.1 -9.79,6.4 -20.62,11.3 -30.97,17.1 -10.83,4.8 -21.71,9.8 -32.77,14.4 l -34.24,12.2"
           style="fill:#232628;fill-opacity:1;fill-rule:nonzero;stroke:none"
           id="path68" /><path
           d="m 4709.44,11602.3 c 0,0 -12.12,-3 -33.29,-7.2 -10.59,-2 -23.49,-4.5 -38.22,-7.4 -7.4,-1.4 -15.25,-3 -23.54,-4.5 -8.28,-1.6 -17.16,-0.7 -26.28,-1.6 -73.35,-4.2 -171.15,-9.8 -268.94,-15.3 -97.8,-5.6 -195.59,-11.2 -268.94,-15.4 -9.19,-0.1 -17.87,-2.1 -26.36,-1.2 -8.44,0.6 -16.44,1.2 -23.92,1.8 -15.02,1.1 -28.16,2.1 -38.95,2.9 -21.54,1.8 -33.92,3.3 -33.92,3.3 0,0 12.06,2.8 33.24,7 10.6,2 23.49,4.5 38.26,7.3 7.38,1.5 15.22,3 23.5,4.6 8.24,1.7 17.17,0.8 26.28,1.7 73.35,4.2 171.14,9.8 268.94,15.4 97.8,5.5 195.59,11.1 268.94,15.3 9.19,0.2 17.92,2 26.36,1.4 8.36,-0.6 16.36,-1.2 23.93,-1.8 14.97,-1.2 28.12,-2.2 38.95,-3 21.57,-1.8 33.96,-3.3 33.96,-3.3"
           style="fill:#232628;fill-opacity:1;fill-rule:nonzero;stroke:none"
           id="path70" /><path
           d="m 8172.5,10692.2 v -0.4 0.9 c 0,0 0,-0.4 0,-0.5 0.33,9.2 32.85,1038.2 -413.32,1030.2 l -595,-51.5 c 0,0 -113.28,-10.3 -84.65,-123.6 0,0 71.29,-313.5 96.83,-608.3 v 0.4 c 54.5,-1.4 174.54,-35.3 174.54,-35.3 124.46,-37.8 124.46,-140.8 124.46,-140.8 v -71.5 -71.5 c 0,0 0,-103 -124.46,-140.8 0,0 -120.04,-33.9 -174.54,-35.2 v 1.2 c -25.54,-294.9 -96.83,-608.36 -96.83,-608.36 -28.63,-113.3 84.65,-123.6 84.65,-123.6 l 595,-51.51 c 446.17,-7.97 413.65,1021.07 413.32,1030.17"
           style="fill:#232628;fill-opacity:1;fill-rule:nonzero;stroke:none"
           id="path72" /><path
           d="m 8172.5,10691.8 v 0.4 c 0,0.1 0,0.5 0,0.5 v -0.9"
           style="fill:#232628;fill-opacity:1;fill-rule:nonzero;stroke:none"
           id="path74" /><path
           d="m 7350.9,10479.5 c 124.46,37.8 124.46,140.8 124.46,140.8 v 71.5 71.5 c 0,0 0,103 -124.46,140.8 0,0 -120.04,33.9 -174.54,35.3 v -0.4 c 7.48,-86.7 11.12,-171.7 7.72,-246.8 3.4,-75 -0.24,-160 -7.72,-246.7 v -1.2 c 54.5,1.3 174.54,35.2 174.54,35.2"
           style="fill:#c8e0e1;fill-opacity:1;fill-rule:nonzero;stroke:none"
           id="path76" /><path
           d="m 7184.08,10691.8 c 0,0.2 0,0.3 0,0.4 0,0.2 0,0.4 0,0.5 v -0.9"
           style="fill:#c8e0e1;fill-opacity:1;fill-rule:nonzero;stroke:none"
           id="path78" /><path
           d="m 9355.07,9936.73 c 0,0 -22.36,-13.28 -63.01,-34.15 -20.42,-10.25 -45.18,-22.82 -74.01,-36.52 -14.42,-6.85 -29.74,-14.11 -45.95,-21.78 -16.28,-7.47 -34.61,-12.76 -52.87,-20.09 -73.74,-27.83 -160.86,-57.82 -255.21,-87.27 -47.3,-14.36 -96.01,-29.64 -146.25,-43 -25.06,-6.88 -50.35,-13.85 -75.67,-20.84 -25.57,-6.35 -51.23,-12.72 -76.88,-19.11 -51.07,-13.35 -102.96,-23.94 -153.83,-35.18 -50.72,-11.86 -101.54,-19.81 -150.26,-29.31 -48.7,-9.83 -96.47,-15.76 -141.48,-22.94 -44.98,-7.42 -87.78,-12.55 -127.4,-16.82 -39.44,-5.54 -75.93,-8.11 -108.4,-8.55 -32.42,-0.47 -60.69,-0.86 -83.98,-1.2 -46.5,-0.27 -73.01,-0.4 -73.01,-0.4 0,0 26.24,3.87 72.13,10.63 22.91,3.19 50.7,7.04 82.62,11.47 15.93,1.91 32.73,5.53 50.53,8.53 17.72,3.37 36.71,4.07 56.28,6.75 39.33,4.24 81.85,9.33 126.54,16.72 44.67,7.15 92.08,13.01 140.45,22.78 48.39,9.42 98.88,17.31 149.25,29.12 50.54,11.15 102.1,21.63 152.9,34.96 25.46,6.33 50.95,12.65 76.35,18.99 25.19,6.94 50.27,13.84 75.13,20.7 50,13.26 98.37,28.44 145.41,42.7 93.69,29.3 180.3,59.06 253.47,86.73 18.51,6.6 35.54,14.31 52.55,19.82 17.08,5.57 33.23,10.84 48.45,15.78 30.35,9.92 56.61,19.26 78.29,26.84 43.14,15.67 67.86,24.64 67.86,24.64"
           style="fill:#232628;fill-opacity:1;fill-rule:nonzero;stroke:none"
           id="path80" /><path
           d="m 9355.07,11447.7 c 0,0 -24.72,9 -67.86,24.7 -21.68,7.6 -47.94,16.9 -78.29,26.9 -15.22,4.9 -31.37,10.2 -48.45,15.7 -17.01,5.5 -34.04,13.3 -52.55,19.9 -73.17,27.6 -159.78,57.4 -253.47,86.6 -47.04,14.3 -95.41,29.5 -145.41,42.8 -24.86,6.8 -49.94,13.7 -75.13,20.7 -25.4,6.3 -50.89,12.6 -76.35,18.9 -50.8,13.4 -102.36,23.9 -152.9,35 -50.37,11.8 -100.86,19.7 -149.25,29.2 -48.37,9.7 -95.78,15.6 -140.45,22.7 -44.69,7.4 -87.21,12.5 -126.54,16.7 -19.57,2.7 -38.56,3.4 -56.28,6.8 -17.8,3 -34.6,6.6 -50.53,8.5 -31.92,4.4 -59.71,8.3 -82.62,11.5 -45.89,6.8 -72.13,10.6 -72.13,10.6 0,0 26.51,-0.1 73.01,-0.4 23.29,-0.3 51.56,-0.7 83.98,-1.2 32.47,-0.4 68.96,-3 108.4,-8.5 39.62,-4.3 82.42,-9.4 127.4,-16.9 45.01,-7.1 92.78,-13.1 141.48,-22.9 48.72,-9.5 99.54,-17.5 150.26,-29.3 50.87,-11.2 102.76,-21.8 153.83,-35.2 25.65,-6.4 51.31,-12.7 76.88,-19.1 25.32,-7 50.61,-14 75.67,-20.8 50.24,-13.4 98.95,-28.7 146.25,-43 94.35,-29.5 181.47,-59.5 255.21,-87.3 18.26,-7.3 36.59,-12.6 52.87,-20.1 16.21,-7.7 31.53,-14.9 45.95,-21.8 28.83,-13.7 53.59,-26.2 74.01,-36.5 40.65,-20.9 63.01,-34.2 63.01,-34.2"
           style="fill:#232628;fill-opacity:1;fill-rule:nonzero;stroke:none"
           id="path82" /><path
           d="m 3450,11596.4 c 0,0 -147.08,-160.9 -61.04,-295.9 86.04,-135 61.04,-230 61.04,-230 v -780 c 0,0 -5.86,-120.6 -88.05,-215 -82.18,-94.39 67.83,-271.02 67.83,-271.02 0,0 -69.24,221.02 65.49,251.02 134.73,30 -75.27,610 299.73,670 0,0 -235,0 -265,570 -35,150 -90,71.7 -80,300.9"
           style="fill:#ec1d27;fill-opacity:1;fill-rule:nonzero;stroke:none"
           id="path84" /><path
           d="m 6884.82,10251 c 0,-173.6 -153.01,-314.27 -341.79,-314.27 H 5194.69 c -188.77,0 -341.82,140.67 -341.82,314.27 v 882.5 c 0,173.5 153.05,314.2 341.82,314.2 h 1348.34 c 188.78,0 341.79,-140.7 341.79,-314.2 V 10251"
           style="fill:#232628;fill-opacity:1;fill-rule:nonzero;stroke:none"
           id="path86" /><path
           d="m 9532.5,10965.5 171.25,-263.7 -171.25,-276.3 103.75,277.5 -103.75,262.5"
           style="fill:#232628;fill-opacity:1;fill-rule:nonzero;stroke:none"
           id="path220" /></g><g
         id="car-2"
         inkscape:export-filename="g737.png"
         inkscape:export-xdpi="6.2771468"
         inkscape:export-ydpi="6.2771468"><path
           d="m 4989.54,5039.56 6.26,-219.2 c 1.88,-65.91 -34.52,-120.35 -81.39,-121.68 l -1020.73,-29.06 c -46.84,-1.39 -86.3,50.96 -88.15,116.86 l -6.34,219.2 c -1.86,65.76 34.6,120.19 81.4,121.58 l 1020.8,29.16 c 46.78,1.38 86.28,-50.96 88.15,-116.86"
           style="fill:#261c18;fill-opacity:1;fill-rule:nonzero;stroke:none"
           id="path88" /><path
           d="m 4887.54,8101.53 6.3,-219.18 c 1.88,-65.77 -34.56,-120.37 -81.38,-121.64 l -1020.79,-29.2 c -46.79,-1.25 -86.29,51.07 -88.16,116.84 l -6.23,219.2 c -1.88,65.9 34.51,120.35 81.38,121.76 l 1020.72,29.08 c 46.82,1.28 86.28,-51.06 88.16,-116.86"
           style="fill:#261c18;fill-opacity:1;fill-rule:nonzero;stroke:none"
           id="path90" /><path
           d="m 8440.17,8101.5 6.24,-219.21 c 1.84,-65.89 -34.54,-120.33 -81.42,-121.62 l -1020.72,-29.12 c -46.86,-1.37 -86.26,50.97 -88.18,116.87 l -6.23,219.2 c -1.92,65.78 34.51,120.34 81.33,121.62 l 1020.79,29.1 c 46.85,1.4 86.27,-50.94 88.19,-116.84"
           style="fill:#261c18;fill-opacity:1;fill-rule:nonzero;stroke:none"
           id="path92" /><path
           d="m 8536.37,5060.56 6.29,-219.16 c 1.84,-65.78 -34.6,-120.37 -81.38,-121.66 l -1020.84,-29.22 c -46.78,-1.25 -86.27,51.07 -88.13,116.87 l -6.28,219.2 c -1.87,65.9 34.61,120.34 81.41,121.76 l 1020.69,29.08 c 46.86,1.27 86.34,-51.07 88.24,-116.87"
           style="fill:#261c18;fill-opacity:1;fill-rule:nonzero;stroke:none"
           id="path94" /><path
           d="m 8755.54,7780.14 -50.87,-0.93 c -54.99,91.31 -150.63,151.82 -259.4,151.82 h -1112.7 c -120.57,0 -224.89,-74.5 -275.86,-183.2 l -1779.69,-33.74 c -58.1,96.72 -163.95,161.94 -285.14,161.94 H 3795.37 c -140.21,0 -259.64,-86.6 -308.83,-209.11 -164.01,-46.84 -284.46,-197.59 -284.46,-376.68 v -440.33 c -52.83,7.77 -124.58,13.07 -185.72,12.73 v 471.81 c 0,91.16 21.15,177.39 58.63,255.55 H 2831.4 V 5255.38 h 306.54 c -76.37,101.8 -121.58,225.67 -121.58,359.53 v 348.16 c 61.14,-0.15 132.89,5.08 185.72,12.78 v -400.64 c 0,-170.53 108.83,-315.12 260.84,-369.03 2.92,-181.31 150.41,-231.58 332.45,-231.58 h 1196.51 c 159.06,0 291.83,15.78 324.8,164.81 l 1751.4,-44.34 C 7122.12,4998.64 7220.36,4934 7332.57,4934 h 1112.7 c 95.93,0 181.5,46.77 238.31,120.33 l 71.96,-1.9 c 131.46,0 247.4,172.97 318.55,357.17 v 1927.55 c -71.15,222.18 -187.09,442.99 -318.55,442.99"
           style="fill:#468ea2;fill-opacity:1;fill-rule:nonzero;stroke:none"
           id="path96" /><path
           d="m 7538.64,6451.51 h -0.89 c -5.57,-302.42 -35.19,-662.61 -73.41,-790.5 -42.17,-140.43 -94.48,-197.33 -136.55,-218.85 -0.64,-0.23 -1.28,-0.51 -1.9,-0.62 -7.63,-4.17 -15.11,-6.8 -22.33,-8.66 -29.27,-7.24 -49.18,1.41 -49.18,1.41 l -401.59,199 v 1598.29 l 401.59,199.13 c 0,0 19.91,8.66 49.18,1.29 7.09,-1.78 14.26,-4.38 22.04,-8.12 0.67,-0.28 1.5,-0.68 2.19,-1.08 42.07,-21.49 94.52,-78.29 136.67,-219.18 38.1,-127.49 67.72,-324.27 73.29,-626.76 h 0.89 c 0.14,-21.51 0,-42.19 -0.1,-62.61 0.1,-20.64 0.24,-41.21 0.1,-62.74 z M 5880.15,5335.23 v 138.86 h 882.58 l 271.36,-134.37 z m -73.42,2167.35 1153.71,-4.43 -271.3,-134.49 H 5806.73 Z M 5280,5948.82 4149.46,5600.77 V 7184.1 L 5280,7045.5 Z m -2077.92,143.51 c -52.83,7.81 -124.58,13.17 -185.72,12.76 v 615.42 c 61.14,-0.25 132.89,5.11 185.72,12.73 z m 5553.46,1687.81 -50.87,-0.93 c -54.99,91.31 -150.63,151.82 -259.4,151.82 h -1112.7 c -120.57,0 -224.89,-74.5 -275.86,-183.2 l -1779.69,-33.74 c -58.1,96.72 -163.95,161.94 -285.14,161.94 H 3795.37 c -140.21,0 -259.64,-86.6 -308.83,-209.11 -164.01,-46.84 -284.46,-197.59 -284.46,-376.68 v -440.33 c -52.83,7.77 -124.58,13.07 -185.72,12.73 v 471.81 c 0,91.16 21.15,177.39 58.63,255.55 H 2831.4 V 5255.38 h 306.54 c -76.37,101.8 -121.58,225.67 -121.58,359.53 v 348.16 c 61.14,-0.15 132.89,5.08 185.72,12.78 v -400.64 c 0,-170.53 108.83,-315.12 260.84,-369.03 2.92,-181.31 150.41,-231.58 332.45,-231.58 h 1196.51 c 159.06,0 291.83,15.78 324.8,164.81 l 1751.4,-44.34 C 7122.12,4998.64 7220.36,4934 7332.57,4934 h 1112.7 c 95.93,0 181.5,46.77 238.31,120.33 l 71.96,-1.9 c 131.46,0 247.4,172.97 318.55,357.17 v 1927.55 c -71.15,222.18 -187.09,442.99 -318.55,442.99"
           style="fill:orange;fill-opacity:1;fill-rule:nonzero;stroke:none"
           id="path98" /><path
           d="m 3202.08,6092.33 c -52.83,7.81 -124.58,13.17 -185.72,12.76 v 615.42 c 61.14,-0.25 132.89,5.11 185.72,12.73 v -640.91"
           style="fill:#ffffff;fill-opacity:1;fill-rule:nonzero;stroke:none"
           id="path100" /><path
           d="m 6686.84,5723.31 h -886.63 v 1460.33 h 886.63 V 5723.31"
           style="fill:#ffffff;fill-opacity:1;fill-rule:nonzero;stroke:none"
           id="path102" /><path
           d="m 2940.39,5353.45 h -43.47 v 2177.89 h 43.47 V 5353.45"
           style="fill:#ffffff;fill-opacity:1;fill-rule:nonzero;stroke:none"
           id="path104" /><path
           d="m 7496.84,7064.77 c 0,0 769.13,356.47 1226.93,414.41 V 5425.93 c 0,0 -1041.73,378.98 -1219.15,477.27 0,0 69.13,654.44 -7.78,1161.57"
           style="fill:#ffffff;fill-opacity:1;fill-rule:nonzero;stroke:none"
           id="path106" /><path
           d="m 7485.43,5759.27 c 0,0 888.02,-317.01 1238.34,-333.34 0,0 -1155.81,322.71 -1226.93,411.44 l -11.41,-78.1"
           style="fill:#ffffff;fill-opacity:1;fill-rule:nonzero;stroke:none"
           id="path108" /><path
           d="m 7482.48,7134.69 c 0,0 551.69,344.49 1241.29,344.49 0,0 -647.63,63.14 -1259.31,-275.56 l 18.02,-68.93"
           style="fill:#ffffff;fill-opacity:1;fill-rule:nonzero;stroke:none"
           id="path110" /><path
           d="m 4295.56,7436.57 c 0,0 -741.32,3.17 -885.8,-25.21 l -69.22,-110.55 867.73,24.63 87.29,111.13"
           style="fill:#ffffff;fill-opacity:1;fill-rule:nonzero;stroke:none"
           id="path112" /><path
           d="m 4298.63,5388.2 c 0,0 -739.99,-45.34 -885.73,-25.28 l -75.43,106.33 867.68,24.79 93.48,-105.84"
           style="fill:#ffffff;fill-opacity:1;fill-rule:nonzero;stroke:none"
           id="path114" /><path
           d="m 4040,6998.83 h -699.46 v 46.67 H 4040 v -46.67"
           style="fill:#ffffff;fill-opacity:1;fill-rule:nonzero;stroke:none"
           id="path116" /><path
           d="m 4040,6845.5 h -699.46 v 46.67 H 4040 v -46.67"
           style="fill:#ffffff;fill-opacity:1;fill-rule:nonzero;stroke:none"
           id="path118" /><path
           d="m 4040,6692.17 h -699.46 v 46.66 H 4040 v -46.66"
           style="fill:#ffffff;fill-opacity:1;fill-rule:nonzero;stroke:none"
           id="path120" /><path
           d="m 4040,6538.83 h -699.46 v 46.67 H 4040 v -46.67"
           style="fill:#ffffff;fill-opacity:1;fill-rule:nonzero;stroke:none"
           id="path122" /><path
           d="m 4040,6385.5 h -699.46 v 46.66 H 4040 v -46.66"
           style="fill:#ffffff;fill-opacity:1;fill-rule:nonzero;stroke:none"
           id="path124" /><path
           d="m 4040,6232.16 h -699.46 v 46.67 H 4040 v -46.67"
           style="fill:#ffffff;fill-opacity:1;fill-rule:nonzero;stroke:none"
           id="path126" /><path
           d="m 4040,6078.83 h -699.46 v 46.66 H 4040 v -46.66"
           style="fill:#ffffff;fill-opacity:1;fill-rule:nonzero;stroke:none"
           id="path128" /><path
           d="m 4040,5925.49 h -699.46 v 46.67 H 4040 v -46.67"
           style="fill:#ffffff;fill-opacity:1;fill-rule:nonzero;stroke:none"
           id="path130" /><path
           d="m 4040,5772.16 h -699.46 v 46.66 H 4040 v -46.66"
           style="fill:#ffffff;fill-opacity:1;fill-rule:nonzero;stroke:none"
           id="path132" /><path
           d="M 5066.67,7731.49 H 3640 v 27.34 h 1426.67 v -27.34"
           style="fill:#468ea2;fill-opacity:1;fill-rule:nonzero;stroke:none"
           id="path134" /><path
           d="M 5066.67,5039.64 H 3640 v 27.34 h 1426.67 v -27.34"
           style="fill:#468ea2;fill-opacity:1;fill-rule:nonzero;stroke:none"
           id="path136" /><path
           d="M 8586.6,5039.64 H 7159.94 v 27.34 H 8586.6 v -27.34"
           style="fill:#468ea2;fill-opacity:1;fill-rule:nonzero;stroke:none"
           id="path138" /><path
           d="M 8586.6,7758.83 H 7159.94 v 27.34 H 8586.6 v -27.34"
           style="fill:#468ea2;fill-opacity:1;fill-rule:nonzero;stroke:none"
           id="path140" /><path
           d="m 9074.09,5409.6 c 0,0 -526.92,-126.44 -390.51,-355.27 0,0 192.1,-123.13 390.51,355.27"
           style="fill:#f5f014;fill-opacity:1;fill-rule:nonzero;stroke:none"
           id="path142" /><path
           d="m 9074.09,7337.15 c 0,0 -520.48,205.98 -384.06,434.81 0,0 201.64,136.87 384.06,-434.81"
           style="fill:#f5f014;fill-opacity:1;fill-rule:nonzero;stroke:none"
           id="path144" /><path
           d="M 3462.92,5206.18 H 3202.08 V 5535.5 Z"
           style="fill:#ec1d27;fill-opacity:1;fill-rule:nonzero;stroke:none"
           id="path146" /><path
           d="M 3482.92,7666 H 3202.08 V 7336.68 Z"
           style="fill:#ec1d27;fill-opacity:1;fill-rule:nonzero;stroke:none"
           id="path148" /></g><g
         id="car-3"
         inkscape:export-filename="g774.png"
         inkscape:export-xdpi="6.2771468"
         inkscape:export-ydpi="6.2771468"><path
           d="m 7824.55,3415.15 1.1,176.99 c 0.38,53.13 31.28,96.02 69.06,95.86 l 824.33,-5.41 c 37.84,-0.27 68.2,-43.58 67.8,-96.67 l -1.1,-177.02 c -0.39,-53.19 -31.27,-96.12 -69.1,-95.92 l -824.27,5.36 c -37.84,0.28 -68.22,43.62 -67.82,96.81"
           style="fill:#261c18;fill-opacity:1;fill-rule:nonzero;stroke:none"
           id="path150" /><path
           d="m 7808.75,983.301 1.13,177.099 c 0.33,53.1 31.26,96.1 69.07,95.8 l 824.3,-5.4 c 37.82,-0.2 68.19,-43.6 67.85,-96.7 l -1.17,-176.998 c -0.32,-53.204 -31.26,-96.102 -69.08,-95.801 l -824.29,5.199 c -37.82,0.402 -68.16,43.602 -67.81,96.801"
           style="fill:#261c18;fill-opacity:1;fill-rule:nonzero;stroke:none"
           id="path152" /><path
           d="m 3981.56,964.402 1.14,176.998 c 0.37,53.2 31.31,96.1 69.12,95.8 l 824.25,-5.3 c 37.82,-0.2 68.18,-43.5 67.86,-96.7 L 4942.8,958.102 C 4942.43,905 4911.54,862 4873.71,862.301 l -824.34,5.301 c -37.76,0.3 -68.14,43.597 -67.81,96.8"
           style="fill:#261c18;fill-opacity:1;fill-rule:nonzero;stroke:none"
           id="path154" /><path
           d="m 3997.92,3483.78 1.12,176.95 c 0.4,53.2 31.29,96.08 69.1,95.92 l 824.35,-5.36 c 37.78,-0.28 68.14,-43.55 67.81,-96.79 l -1.13,-177.04 c -0.39,-53.19 -31.31,-95.98 -69.14,-95.81 l -824.25,5.35 c -37.82,0.33 -68.18,43.57 -67.86,96.78"
           style="fill:#261c18;fill-opacity:1;fill-rule:nonzero;stroke:none"
           id="path156" /><path
           d="m 5218.25,3726.96 c -36.69,-71.88 -110.62,-116.81 -191.36,-116.3 l -1471.49,9.61 c -88.44,0.54 -479.3,-386.13 -626.43,-534.91 -36.46,-36.86 -57.91,-85.35 -60.98,-137.11 L 2500.97,2322.1 h -1.17 l 0.52,-11 -0.66,-10.9 h 1.18 l 358.92,-626.7 c 2.34,-51.7 23.19,-100.6 59.17,-137.8 145.16,-150.8 530.96,-542.501 619.39,-543.001 l 1471.49,-9.597 c 80.74,-0.5 154.12,-46.403 189.83,-118.7 19.17,-38.902 41.05,-81.601 60.87,-119.703 36.45,-70.097 108.76,-114.297 187.88,-114.801 h 3.64 l -32.41,158.903 c -27.07,132.801 74.94,256.899 210.43,255.899 l 766.2,-4.9 22.27,49.1 191.6,-1.3 10.58,-49.3 2138.03,-13.9 c 46.6,-0.2 91.99,14.7 129.6,42.1 417.94,304.1 424.09,1100.1 423.1,1202.6 2.3,102.4 6.5,898.36 -407.45,1207.88 -37.23,27.84 -82.48,43.4 -129,43.72 l -2138.04,13.84 -11.31,-49.15 -191.59,1.2 -21.57,49.46 -766.2,4.86 c -135.54,0.99 -235.9,126.32 -207.12,258.74 l 34.47,158.56 h -3.63 c -79.13,0.48 -151.94,-42.71 -189.39,-112.44 -20.28,-37.79 -42.68,-80.27 -62.35,-118.81"
           style="fill:#91191e;fill-opacity:1;fill-rule:nonzero;stroke:none"
           id="path158" /><path
           d="m 3059.6,2860.7 c 0,0 1227.23,152.64 1550.84,522.75 79.93,-51.63 -68.33,-400.96 -1550.84,-522.75"
           style="fill:#ffffff;fill-opacity:1;fill-rule:nonzero;stroke:none"
           id="path160" /><path
           d="m 5320.97,2305.9 h -0.4 l 0.11,-11 -0.29,-10.9 h 0.44 l 11.03,-902.8 c 1.41,-115.2 58.52,-207.1 128.92,-207.6 l 1193.45,-7.8 c 89.94,-0.6 562.22,103.5 539.18,1117 36.21,1013.04 -434.68,1123.23 -524.64,1123.82 l -1193.42,7.71 c -70.44,0.46 -128.73,-90.72 -131.64,-205.96 l -22.74,-902.47"
           style="fill:#ffffff;fill-opacity:1;fill-rule:nonzero;stroke:none"
           id="path162" /><path
           d="m 6833.97,1742.5 c -0.96,-148 -26.08,-401.6 -183.4,-436.9 -127.81,-28.6 -285.49,25.8 -388.95,72.5 -53.27,24 -114.2,24.8 -167.66,1.2 -100.03,-44.1 -259.55,-90.9 -427.13,-46.5 -112.52,29.8 -134.96,222.9 -133.93,379.8 1.32,201.4 48.35,535.7 169.02,575.7 164.31,54.3 310.03,15.5 404.15,-27.4 53.66,-24.5 114.39,-23.3 168.83,-0.7 94.41,39.4 224.04,72.1 323.88,55.8 89.51,-14.5 150.58,-64.5 176.66,-144.5 37.07,-113.5 59.52,-277.9 58.53,-428.9 v -0.1"
           style="fill:#ffffff;fill-opacity:1;fill-rule:nonzero;stroke:none"
           id="path164" /><path
           d="m 5678.02,1375.1 c 159.68,-42.2 313.82,6.1 406.91,48.4 58.39,26.5 124.67,27.1 182.8,0.1 97.42,-45.3 252.68,-102.2 373.26,-75.2 190.06,42.6 171.57,568.2 92.88,809.6 -59.05,181.1 -317.78,117 -457.05,55.3 -55.48,-24.6 -118.74,-26.6 -173.26,0 -85.91,42 -228.08,86.3 -387.88,33.4 -134.87,-44.7 -212.93,-825.2 -37.66,-871.6"
           style="fill:#213643;fill-opacity:1;fill-rule:nonzero;stroke:none"
           id="path166" /><path
           d="m 6841.02,2828.4 c -0.97,-151.1 -25.55,-315.3 -64.07,-428.3 -27.15,-79.7 -88.85,-128.8 -178.54,-142.1 -100.02,-14.9 -229.22,19.4 -323.13,59.9 -54.14,23.4 -114.84,25.3 -168.83,1.5 -94.7,-41.5 -240.89,-78.6 -404.44,-22 -120.15,41.4 -162.89,376.4 -161.57,577.8 1.04,156.79 25.94,349.68 138.85,377.97 168.16,42.18 327.04,-6.68 426.5,-52.05 53.14,-24.25 114.09,-24.33 167.64,-0.93 104.11,45.27 262.51,97.61 389.89,67.31 156.82,-37.25 178.63,-291.13 177.7,-439.1"
           style="fill:#ffffff;fill-opacity:1;fill-rule:nonzero;stroke:none"
           id="path168" /><path
           d="m 5689.93,3210.76 c 160.21,40.04 313.71,-10.31 406.23,-53.7 58.07,-27.26 124.3,-28.73 182.8,-2.55 98.01,44.08 254.01,98.94 374.2,70.37 189.46,-45.01 164.15,-570.38 82.35,-810.78 -61.41,-180.2 -319.22,-112.8 -457.7,-49.3 -55.16,25.3 -118.36,28.2 -173.27,2.2 -86.41,-40.9 -229.18,-83.2 -388.22,-28.3 -134.29,46.5 -202.2,827.88 -26.39,872.06"
           style="fill:#213643;fill-opacity:1;fill-rule:nonzero;stroke:none"
           id="path170" /><path
           d="m 8238.87,1250.4 c 0,0 391.35,-15.3 602.93,-11.2 69.02,1.3 132.65,36.6 171.34,93.9 v 0 l -600.78,3.8 c -63.35,0.4 -123.54,-27.3 -164.41,-75.7 l -9.08,-10.8"
           style="fill:#ffffff;fill-opacity:1;fill-rule:nonzero;stroke:none"
           id="path172" /><path
           d="m 8252.2,3301.48 c 0,0 391.49,10.27 603.03,3.37 68.95,-2.23 132.16,-38.37 170.05,-96.02 v 0 l -600.72,3.88 c -63.34,0.48 -123.2,28.98 -163.43,77.82 l -8.93,10.95"
           style="fill:#ffffff;fill-opacity:1;fill-rule:nonzero;stroke:none"
           id="path174" /><path
           d="m 3052.45,1758.5 c 0,0 1225.18,-168.5 1543.88,-542.8 80.64,50.6 -63.11,401.8 -1543.88,542.8"
           style="fill:#ffffff;fill-opacity:1;fill-rule:nonzero;stroke:none"
           id="path176" /><path
           d="m 5681.46,3106.23 c -0.53,-5.08 -49.3,-510.83 -50.85,-747.73 0,-3.6 0,-7.3 0,-10.8 h 4.45 l -3.17,-55.6 3.72,-54 h -5.7 c -0.1,-3.6 -0.1,-7.2 -0.15,-10.9 -1.5,-236.8 40.66,-743.1 41.08,-748.1 l 2.08,-24.8 -20.09,-14.4 c -98.39,-70.9 -672.03,-248.1 -737.1,-268 l -32.01,-9.8 -17.85,28.2 c -271.34,429.6 -288.21,990 -288.88,1097.9 l 0.09,22.9 c 2.08,108.2 26.69,668.86 303.13,1094.21 l 18.26,28.11 31.88,-10.29 c 64.8,-20.76 636.12,-205.4 733.56,-277.56 l 19.89,-14.71 -2.34,-24.63"
           style="fill:#ffffff;fill-opacity:1;fill-rule:nonzero;stroke:none"
           id="path178" /><path
           d="m 4620.95,2310.4 h -0.11 c 0,0 -0.05,-4 -0.09,-11 -0.1,-6.8 -0.03,-10.9 -0.03,-10.9 h 0.07 c 0.63,-99.8 14.16,-528.8 194.79,-914.4 44.55,-95.2 155.47,-139.5 255.44,-107.4 123.15,39.8 289.1,94.9 409.86,141.5 87.29,33.8 141.81,120.6 134.87,213.9 -14.13,191.3 -35.55,518.2 -28.38,660.2 h 1.28 c -0.23,3.4 -0.43,7.1 -0.62,10.9 0.23,3.7 0.47,7.6 0.74,11 h -1.27 c -5.33,142 20.33,468.5 36.98,659.62 8.1,93.29 -45.26,180.81 -132.08,215.62 -120.17,48.27 -285.36,105.51 -407.97,146.74 -99.61,33.6 -211.09,-9.33 -256.83,-103.94 C 4641.98,2838.9 4622.83,2410.2 4620.95,2310.4"
           style="fill:#6da7b6;fill-opacity:1;fill-rule:nonzero;stroke:none"
           id="path180" /><path
           d="m 7593.39,2954.62 v 0.3 c -115.51,-8.62 -222.35,-147.32 -222.35,-147.32 0,0 106.84,-138.8 222.35,-147.3 v 0.2 c 12.06,-10.4 27.92,-17.3 43.11,-17.3 h 115.06 c 21.67,0 45.27,13.5 56.13,32.3 l 57.53,99.7 c 5.16,9 8.05,20.5 8.05,32.4 0,11.9 -2.89,23.4 -8.05,32.4 l -57.53,99.65 c -10.86,18.76 -34.46,32.36 -56.13,32.36 H 7636.5 c -15.19,0 -31.05,-6.93 -43.11,-17.39"
           style="fill:#213643;fill-opacity:1;fill-rule:nonzero;stroke:none"
           id="path182" /><path
           d="m 7593.39,1641.2 v -0.2 c -115.51,8.5 -222.35,147.3 -222.35,147.3 0,0 106.84,138.7 222.35,147.3 v -0.2 c 12.06,10.4 27.92,17.3 43.11,17.3 h 115.06 c 21.67,0 45.27,-13.6 56.13,-32.4 l 57.53,-99.6 c 5.16,-9 8.05,-20.5 8.05,-32.4 0,-11.9 -2.89,-23.4 -8.05,-32.4 l -57.53,-99.7 c -10.86,-18.8 -34.46,-32.3 -56.13,-32.3 H 7636.5 c -15.19,0 -31.05,6.9 -43.11,17.3"
           style="fill:#213643;fill-opacity:1;fill-rule:nonzero;stroke:none"
           id="path184" /><path
           d="m 7636.5,2666.9 c -13.08,0 -29.03,9.2 -35.56,20.5 l -57.58,99.6 c -6.52,11.3 -6.52,29.8 0,41.1 l 57.58,99.67 c 6.53,11.3 22.48,20.55 35.56,20.55 h 115.06 c 13.09,0 29.02,-9.25 35.58,-20.55 l 57.5,-99.67 c 6.56,-11.3 6.56,-29.8 0,-41.1 l -57.5,-99.6 c -6.56,-11.3 -22.49,-20.5 -35.58,-20.5 H 7636.5"
           style="fill:#ffffff;fill-opacity:1;fill-rule:nonzero;stroke:none"
           id="path186" /><path
           d="m 7636.5,1929 c -13.08,0 -29.03,-9.2 -35.56,-20.5 l -57.58,-99.7 c -6.52,-11.3 -6.52,-29.7 0,-41 l 57.58,-99.7 c 6.53,-11.3 22.48,-20.5 35.56,-20.5 h 115.06 c 13.09,0 29.02,9.2 35.58,20.5 l 57.5,99.7 c 6.56,11.3 6.56,29.7 0,41 l -57.5,99.7 c -6.56,11.3 -22.49,20.5 -35.58,20.5 H 7636.5"
           style="fill:#ffffff;fill-opacity:1;fill-rule:nonzero;stroke:none"
           id="path188" /><path
           d="m 8261.16,2954.62 v 0.3 c -115.52,-8.62 -222.34,-147.32 -222.34,-147.32 0,0 106.82,-138.8 222.34,-147.3 v 0.2 c 12.05,-10.4 27.91,-17.3 43.13,-17.3 h 115.04 c 21.67,0 45.26,13.5 56.12,32.3 l 57.55,99.7 c 5.14,9 8.04,20.5 8.04,32.4 0,11.9 -2.9,23.4 -8.04,32.4 l -57.55,99.65 c -10.86,18.76 -34.45,32.36 -56.12,32.36 h -115.04 c -15.22,0 -31.08,-6.93 -43.13,-17.39"
           style="fill:#213643;fill-opacity:1;fill-rule:nonzero;stroke:none"
           id="path190" /><path
           d="m 8261.16,1641.2 v -0.2 c -115.52,8.5 -222.34,147.3 -222.34,147.3 0,0 106.82,138.7 222.34,147.3 v -0.2 c 12.05,10.4 27.91,17.3 43.13,17.3 h 115.04 c 21.67,0 45.26,-13.6 56.12,-32.4 l 57.55,-99.6 c 5.14,-9 8.04,-20.5 8.04,-32.4 0,-11.9 -2.9,-23.4 -8.04,-32.4 l -57.55,-99.7 c -10.86,-18.8 -34.45,-32.3 -56.12,-32.3 h -115.04 c -15.22,0 -31.08,6.9 -43.13,17.3"
           style="fill:#213643;fill-opacity:1;fill-rule:nonzero;stroke:none"
           id="path192" /><path
           d="m 8304.29,2666.9 c -13.09,0 -29.08,9.2 -35.58,20.5 l -57.59,99.6 c -6.52,11.3 -6.52,29.8 0,41.1 l 57.59,99.67 c 6.5,11.3 22.49,20.55 35.58,20.55 h 115.04 c 13.07,0 29.01,-9.25 35.57,-20.55 l 57.5,-99.67 c 6.56,-11.3 6.56,-29.8 0,-41.1 l -57.5,-99.6 c -6.56,-11.3 -22.5,-20.5 -35.57,-20.5 h -115.04"
           style="fill:#ffffff;fill-opacity:1;fill-rule:nonzero;stroke:none"
           id="path194" /><path
           d="m 8304.29,1929 c -13.09,0 -29.08,-9.2 -35.58,-20.5 l -57.59,-99.7 c -6.52,-11.3 -6.52,-29.7 0,-41 l 57.59,-99.7 c 6.5,-11.3 22.49,-20.5 35.58,-20.5 h 115.04 c 13.07,0 29.01,9.2 35.57,20.5 l 57.5,99.7 c 6.56,11.3 6.56,29.7 0,41 l -57.5,99.7 c -6.56,11.3 -22.5,20.5 -35.57,20.5 h -115.04"
           style="fill:#ffffff;fill-opacity:1;fill-rule:nonzero;stroke:none"
           id="path196" /><path
           d="m 8928.93,2954.62 v 0.3 c -115.5,-8.62 -222.35,-147.32 -222.35,-147.32 0,0 106.85,-138.8 222.35,-147.3 v 0.2 c 12.06,-10.4 27.91,-17.3 43.12,-17.3 h 115.04 c 21.67,0 45.26,13.5 56.11,32.3 l 57.56,99.7 c 5.15,9 8.04,20.5 8.04,32.4 0,11.9 -2.89,23.4 -8.04,32.4 l -57.56,99.65 c -10.85,18.76 -34.44,32.36 -56.11,32.36 h -115.04 c -15.21,0 -31.06,-6.93 -43.12,-17.39"
           style="fill:#213643;fill-opacity:1;fill-rule:nonzero;stroke:none"
           id="path198" /><path
           d="m 8928.93,1641.2 v -0.2 c -115.5,8.5 -222.35,147.3 -222.35,147.3 0,0 106.85,138.7 222.35,147.3 v -0.2 c 12.06,10.4 27.91,17.3 43.12,17.3 h 115.04 c 21.67,0 45.26,-13.6 56.11,-32.4 l 57.56,-99.6 c 5.15,-9 8.04,-20.5 8.04,-32.4 0,-11.9 -2.89,-23.4 -8.04,-32.4 l -57.56,-99.7 c -10.85,-18.8 -34.44,-32.3 -56.11,-32.3 h -115.04 c -15.21,0 -31.06,6.9 -43.12,17.3"
           style="fill:#213643;fill-opacity:1;fill-rule:nonzero;stroke:none"
           id="path200" /><path
           d="m 8972.05,2666.9 c -13.09,0 -29.05,9.2 -35.58,20.5 l -57.58,99.6 c -6.51,11.3 -6.51,29.8 0,41.1 l 57.58,99.67 c 6.53,11.3 22.49,20.55 35.58,20.55 h 115.04 c 13.08,0 29.02,-9.25 35.58,-20.55 l 57.51,-99.67 c 6.57,-11.3 6.57,-29.8 0,-41.1 l -57.51,-99.6 c -6.56,-11.3 -22.5,-20.5 -35.58,-20.5 h -115.04"
           style="fill:#ffffff;fill-opacity:1;fill-rule:nonzero;stroke:none"
           id="path202" /><path
           d="m 8972.05,1929 c -13.09,0 -29.05,-9.2 -35.58,-20.5 l -57.58,-99.7 c -6.51,-11.3 -6.51,-29.7 0,-41 l 57.58,-99.7 c 6.53,-11.3 22.49,-20.5 35.58,-20.5 h 115.04 c 13.08,0 29.02,9.2 35.58,20.5 l 57.51,99.7 c 6.57,11.3 6.57,29.7 0,41 l -57.51,99.7 c -6.56,11.3 -22.5,20.5 -35.58,20.5 h -115.04"
           style="fill:#ffffff;fill-opacity:1;fill-rule:nonzero;stroke:none"
           id="path204" /><path
           d="m 3555.4,3620.27 c 0,0 -480.4,-73.83 -665.4,-589.3 0,0 345.79,419.06 665.4,589.3"
           style="fill:#f5f014;fill-opacity:1;fill-rule:nonzero;stroke:none"
           id="path206" /><path
           d="m 2871.86,1611.7 c 0,0 130.2,-463.8 655.86,-617.501 0,0 -462.2,346.801 -655.86,617.501"
           style="fill:#f5f014;fill-opacity:1;fill-rule:nonzero;stroke:none"
           id="path208" /><path
           d="M 2799.6,2666.9 2597.5,2315.5 2792.45,1929 Z"
           style="fill:#ffffff;fill-opacity:1;fill-rule:nonzero;stroke:none"
           id="path210" /><path
           d="m 2926.99,1929 h -73.66 v 737.9 h 73.66 V 1929"
           style="fill:#ffffff;fill-opacity:1;fill-rule:nonzero;stroke:none"
           id="path212" /><path
           d="m 3074.32,2015.5 h -73.66 v 590 h 73.66 v -590"
           style="fill:#ffffff;fill-opacity:1;fill-rule:nonzero;stroke:none"
           id="path214" /><path
           d="m 3243.33,2092.2 h -91.96 v 470 h 91.96 v -470"
           style="fill:#ffffff;fill-opacity:1;fill-rule:nonzero;stroke:none"
           id="path216" /><path
           d="M 9208.8,2385.5 H 7371.04 v -58.3 H 9208.8 v 58.3"
           style="fill:#ffffff;fill-opacity:1;fill-rule:nonzero;stroke:none"
           id="path218" /></g></g></g></svg>
